<svg xmlns="http://www.w3.org/2000/svg" aria-hidden="true" style="width:0;height:0;position:absolute;overflow:hidden"><defs><symbol id="icon-search" viewBox="0 0 32 32"><path fill="#616161" d="m19.454 21.327 1.886-1.886 8.014 8.014-1.886 1.886z" style="fill:var(--color1,#616161)"/><path fill="#616161" d="M13.333 2.667c-5.891 0-10.667 4.776-10.667 10.667s4.776 10.667 10.667 10.667S24 19.225 24 13.334 19.224 2.667 13.333 2.667z" style="fill:var(--color1,#616161)"/><path fill="#37474f" d="m21.637 23.561 1.886-1.886 5.798 5.798-1.886 1.886z" style="fill:var(--color2,#37474f)"/><path fill="#64b5f6" d="M13.333 4.667a8.667 8.667 0 0 0 0 17.334 8.667 8.667 0 0 0 0-17.334z" style="fill:var(--color3,#64b5f6)"/><path fill="#bbdefb" d="M17.933 9.467c-1.133-1.333-2.8-2.133-4.6-2.133s-3.467.8-4.6 2.133c-.267.267-.2.733.067.933.267.267.733.2.933-.067.933-1.067 2.2-1.667 3.6-1.667s2.667.6 3.6 1.667c.133.133.333.267.533.267.133 0 .333-.067.4-.133.267-.267.267-.733.067-1z" style="fill:var(--color4,#bbdefb)"/></symbol></defs></svg>